<svg width="150" height="150" viewBox="0 0 150 150" fill="none" xmlns="http://www.w3.org/2000/svg">
<path d="M11 36.0458C11 32.7321 13.6863 30.0458 17 30.0458H105C108.314 30.0458 111 32.7321 111 36.0458V44.0458C111 47.3595 108.314 50.0458 105 50.0458H17C13.6863 50.0458 11 47.3595 11 44.0458V36.0458Z" fill="#F2F2F2"/>
<path d="M35 36.0458C35 32.7321 37.6863 30.0458 41 30.0458H54C57.3137 30.0458 60 32.7321 60 36.0458V114.046C60 117.359 57.3137 120.046 54 120.046H41C37.6863 120.046 35 117.359 35 114.046V36.0458Z" fill="#F2F2F2"/>
<path d="M71 91.0458C71 87.7321 73.6863 85.0458 77 85.0458H120C123.314 85.0458 126 87.7321 126 91.0458V99.0458C126 102.359 123.314 105.046 120 105.046H77C73.6863 105.046 71 102.359 71 99.0458V91.0458Z" fill="#F2F2F2"/>
<path d="M87.4905 42.9007C86.3988 39.7719 88.0503 36.3507 91.179 35.2591L103.453 30.9765C106.582 29.8849 110.003 31.5363 111.095 34.6651L136.657 107.93C137.749 111.059 136.097 114.48 132.969 115.572L120.694 119.854C117.565 120.946 114.144 119.294 113.053 116.166L87.4905 42.9007Z" fill="#F2F2F2"/>
</svg>
